<?xml version="1.0" standalone="no"?>
<!DOCTYPE svg PUBLIC "-//W3C//DTD SVG 20010904//EN"
 "http://www.w3.org/TR/2001/REC-SVG-20010904/DTD/svg10.dtd">
<svg version="1.0" xmlns="http://www.w3.org/2000/svg"
 width="807.000000pt" height="1038.000000pt" viewBox="0 0 807.000000 1038.000000"
 preserveAspectRatio="xMidYMid meet">
<metadata>
Created by potrace 1.16, written by Peter Selinger 2001-2019
</metadata>
<g transform="translate(0.000000,1038.000000) scale(0.100000,-0.100000)"
fill="#000000" stroke="none">
<path d="M6810 10364 c0 -9 31 -75 69 -147 118 -223 161 -392 161 -629 0 -595
-355 -1297 -971 -1918 -313 -315 -806 -713 -1016 -819 -77 -39 -77 -40 -70
117 17 380 100 801 241 1227 250 750 612 1315 1016 1584 202 134 213 153 138
224 -196 186 -521 97 -848 -232 -293 -295 -507 -661 -700 -1201 -132 -369
-252 -875 -305 -1282 -48 -375 -45 -1631 5 -2063 14 -121 28 -161 64 -192 26
-22 37 -24 81 -20 79 9 218 36 228 46 19 19 27 94 27 264 0 158 -22 722 -34
884 l-5 62 67 37 c268 149 668 404 912 581 516 374 916 783 1179 1204 464 745
576 1408 310 1847 -111 184 -286 347 -445 418 -64 28 -104 31 -104 8z"/>
<path d="M5995 9031 c-76 -19 -149 -85 -189 -170 -16 -36 -21 -65 -21 -137 0
-82 3 -94 27 -132 16 -23 42 -49 60 -58 42 -22 187 -31 228 -14 63 26 130 132
150 241 23 122 -37 232 -143 264 -55 16 -66 17 -112 6z"/>
<path d="M1651 8182 c2 -6 60 -71 129 -143 157 -166 240 -265 335 -400 191
-270 334 -554 448 -884 96 -280 116 -319 165 -330 38 -8 182 38 222 71 26 22
30 32 30 75 0 62 -28 135 -130 339 -264 528 -618 952 -957 1148 -138 80 -246
135 -242 124z"/>
<path d="M564 7960 c-135 -19 -221 -57 -301 -133 -134 -126 -231 -338 -253
-548 -25 -253 76 -476 309 -682 103 -92 341 -241 357 -224 13 13 -8 57 -80
165 -88 133 -120 210 -142 335 -29 168 3 337 99 521 93 178 210 289 355 335
37 12 124 27 194 35 71 7 130 15 133 17 3 3 -53 35 -123 72 -86 45 -155 73
-212 86 -98 24 -250 33 -336 21z"/>
<path d="M1227 7036 c-101 -37 -167 -124 -167 -217 0 -69 29 -127 91 -183 58
-52 121 -76 200 -76 155 0 253 138 208 290 -40 134 -212 231 -332 186z"/>
<path d="M3770 6170 c-47 -16 -197 -66 -335 -113 -636 -217 -1020 -302 -1523
-336 -299 -21 -850 -8 -1032 24 -160 28 -157 13 16 -64 188 -84 413 -138 734
-177 202 -25 682 -25 860 -1 68 9 165 17 215 17 109 0 129 -13 142 -87 16 -93
8 -1049 -10 -1298 -66 -886 -245 -1703 -524 -2390 -270 -667 -638 -1168 -1032
-1407 -203 -123 -355 -163 -686 -180 l-50 -3 120 -58 c212 -103 179 -97 493
-97 269 0 280 1 357 25 290 92 535 293 791 651 257 361 510 896 645 1364 127
444 265 1167 292 1526 5 72 32 104 126 153 281 146 1308 464 1414 437 35 -8
99 -93 187 -251 41 -71 95 -162 122 -202 139 -208 400 -487 563 -601 100 -70
355 -209 355 -193 0 6 -45 61 -101 123 -252 282 -448 567 -616 896 -66 130
-143 335 -131 348 3 3 122 0 264 -6 143 -5 435 -13 649 -16 456 -6 454 -7 181
80 -366 118 -569 149 -986 149 -563 0 -1071 -84 -1640 -272 -281 -93 -290 -95
-290 -79 0 7 -5 47 -10 88 -6 41 -17 275 -25 520 -17 492 -27 645 -51 798 -10
56 -15 104 -13 106 2 2 85 27 184 55 351 101 406 121 448 161 41 42 43 54 37
215 -3 93 -13 125 -37 124 -10 -1 -56 -14 -103 -29z"/>
<path d="M3832 5340 c-69 -31 -110 -69 -139 -128 -24 -49 -28 -69 -28 -142 0
-71 4 -91 22 -121 62 -99 249 -92 362 14 64 61 88 161 60 260 -13 47 -63 106
-106 123 -46 20 -121 17 -171 -6z"/>
<path d="M7194 4445 c-11 -27 10 -58 113 -170 110 -120 149 -175 203 -290 111
-237 149 -503 100 -700 -75 -298 -256 -566 -512 -756 -146 -108 -266 -164
-433 -201 -73 -16 -140 -21 -360 -25 -148 -3 -274 -8 -278 -12 -10 -10 241
-116 348 -147 150 -43 280 -57 490 -51 216 6 337 29 483 90 237 101 461 315
587 562 95 187 129 332 128 555 0 145 -3 177 -26 262 -53 199 -151 357 -347
561 -134 140 -262 242 -363 292 -94 45 -125 52 -133 30z"/>
<path d="M6180 3729 c-56 -25 -77 -44 -101 -91 -61 -120 -9 -276 115 -341 57
-30 165 -30 222 0 89 47 131 125 120 226 -8 80 -32 124 -90 168 -82 62 -181
77 -266 38z"/>
<path d="M2117 3550 c-285 -166 -913 -654 -1146 -890 -277 -280 -524 -675
-636 -1015 -121 -368 -95 -641 77 -801 63 -58 164 -114 206 -114 75 0 91 44
102 284 14 287 46 432 144 641 79 169 219 376 377 557 176 201 625 637 785
762 84 66 126 132 153 241 19 74 51 299 51 352 0 35 -34 29 -113 -17z"/>
<path d="M1502 1964 c-57 -28 -113 -92 -133 -151 -15 -48 -7 -160 16 -207 26
-53 77 -76 175 -76 134 0 226 64 251 174 23 105 -26 222 -111 267 -52 28 -134
25 -198 -7z"/>
</g>
</svg>
